PathFileType	3	(X/Y/Z)	C:\Users\koon_\Desktop\
DataRate	CameraRate	NumFrames	NumMarkers	Units	OrigDataRate	OrigDataStartFrame	OrigNumFrames
100.0	100.0	11	27	mm	100.0	1	2700	
Frame#	Time	get:LFHD			get:RFHD			get:LBHD			get:RBHD			get:C7			get:T10			get:CLAV			get:STRN			get:RBAK			get:LSHO			get:LUPA			get:LELB			get:LFRA			get:LWRA			get:LWRB			get:LFIN			get:RSHO			get:RUPA			get:RELB			get:RFRA			get:RWRA			get:RWRB			get:RFIN			get:LASI			get:RASI			get:LPSI			get:RPSI			
		X1	Y1	Z1	X2	Y2	Z2	X3	Y3	Z3	X4	Y4	Z4	X5	Y5	Z5	X6	Y6	Z6	X7	Y7	Z7	X8	Y8	Z8	X9	Y9	Z9	X10	Y10	Z10	X11	Y11	Z11	X12	Y12	Z12	X13	Y13	Z13	X14	Y14	Z14	X15	Y15	Z15	X16	Y16	Z16	X17	Y17	Z17	X18	Y18	Z18	X19	Y19	Z19	X20	Y20	Z20	X21	Y21	Z21	X22	Y22	Z22	X23	Y23	Z23	X24	Y24	Z24	X25	Y25	Z25	X26	Y26	Z26	X27	Y27	Z27	
1	0	86.028183	1553.9779	-26.436544	-55.340172	1552.1815	-22.270052	57.086826	1560.9458	-186.15872	-72.167755	1535.106	-188.02486	10.371257	1342.2026	-213.27336	4.0065398	1131.8325	-256.27258	11.72807	1265.7228	-18.577665	22.09025	1070.1969	20.245041	-71.491554	1264.3741	-238.89502	144.98352	1343.0668	-131.39452	239.7137	1208.0742	-117.24857	263.9292	1008.9338	-133.01175	247.1077	879.31384	-56.348579	214.70886	798.06238	-47.525852	280.461	799.96045	-102.67788	272.22006	723.59375	-32.990349	-126.3393	1332.296	-123.2481	-217.78487	1116.1265	-88.289192	-236.74844	999.04828	-144.21698	-228.78944	954.05109	-56.243275	-193.85774	801.78174	-24.902079	-253.64154	797.59766	-81.219734	-242.97745	731.35626	1.6422092	143.31288	893.16925	-28.414886	-120.54793	880.92059	-21.329044	47.451515	953.56964	-239.81303	-42.732052	951.24933	-238.95764
2	0.01	86.079247	1553.9585	-26.415421	-55.315411	1552.1981	-22.252871	57.146896	1560.9363	-186.14555	-72.117882	1535.1306	-188.00508	10.37074	1342.2014	-213.3138	3.9794109	1131.7762	-256.20938	11.72807	1265.7228	-18.577665	22.024797	1070.1833	20.289583	-71.543854	1264.3647	-238.86409	144.99509	1343.0405	-131.37987	239.69801	1207.9998	-117.22025	263.86801	1008.8595	-132.92471	247.02113	879.26709	-56.245945	214.54152	798.03455	-47.411449	280.72812	799.88232	-102.48182	272.05826	723.54755	-32.896118	-126.34184	1332.3063	-123.24979	-217.80695	1116.1624	-88.336311	-236.78181	999.06989	-144.17046	-228.78645	954.06866	-56.159512	-193.86971	801.83777	-24.811504	-253.70056	797.59729	-81.1427	-243.02415	731.39386	1.6459031	143.26782	893.16559	-28.344444	-120.58472	880.94403	-21.287714	47.36377	953.51971	-239.68645	-42.77417	951.26868	-238.93396
3	0.02	86.12574	1553.9392	-26.389687	-55.268383	1552.1993	-22.209604	57.211132	1560.937	-186.09906	-72.112877	1535.1527	-187.92354	10.375268	1342.1747	-213.29483	3.9554503	1131.7975	-256.23178	11.707354	1265.7059	-18.531851	21.978617	1070.1614	20.303293	-71.525421	1264.361	-238.84106	144.99452	1343.0012	-131.38168	239.65257	1207.9336	-117.15515	263.80035	1008.7875	-132.86159	246.89969	879.20972	-56.167942	214.40958	797.98822	-47.285782	280.6091	799.82422	-102.36481	271.9234	723.50305	-32.803356	-126.36349	1332.3268	-123.23796	-217.81079	1116.1575	-88.209656	-236.82127	999.07428	-144.12109	-228.84758	954.08582	-56.046146	-193.94936	801.86591	-24.725323	-253.75848	797.64008	-81.088661	-243.07838	731.45197	1.7173009	143.21391	893.17438	-28.311956	-120.60995	880.9306	-21.204948	47.352253	953.55658	-239.70056	-42.806389	951.25134	-238.83705
4	0.03	86.172394	1553.932	-26.353718	-55.231026	1552.1984	-22.204926	57.238499	1560.9401	-186.07646	-72.046036	1535.1749	-187.99216	10.369243	1342.1169	-213.21069	3.9363875	1131.7933	-256.23071	11.689384	1265.7206	-18.566753	21.978619	1070.1614	20.303288	-71.525421	1264.361	-238.84106	144.9944	1342.9663	-131.38142	239.63416	1207.8903	-117.1634	263.69763	1008.7087	-132.77843	246.77934	879.15002	-56.052853	214.2718	797.95868	-47.1717	280.07965	799.78839	-102.38104	271.75159	723.41553	-32.676174	-126.34908	1332.3361	-123.23432	-217.87376	1116.2111	-88.274422	-236.8475	999.12207	-144.06683	-228.88435	954.13892	-56.039993	-193.9877	801.90631	-24.660385	-253.8116	797.68585	-81.013916	-243.1275	731.47406	1.7935035	143.17113	893.18573	-28.245541	-120.66118	880.93976	-21.08012	47.26099	953.50952	-239.53667	-42.833157	951.25787	-238.76953
5	0.04	86.191254	1553.9219	-26.357536	-55.17205	1552.2257	-22.195509	57.261421	1560.9404	-186.07024	-71.99823	1535.1921	-187.95291	10.350795	1342.1301	-213.20895	3.8737631	1131.7369	-256.11157	11.688005	1265.6874	-18.480051	21.938648	1070.1588	20.338011	-71.543625	1264.3541	-238.76871	145.03368	1342.9197	-131.36653	239.58961	1207.8236	-117.13804	263.60693	1008.6459	-132.69119	246.70332	879.1319	-55.923668	214.16422	797.89734	-47.096409	280.32489	799.71576	-102.14478	271.62015	723.37756	-32.566467	-126.35513	1332.3342	-123.19437	-217.86508	1116.2212	-88.088402	-236.883	999.12012	-144.0473	-228.92172	954.19147	-55.956318	-194.06769	801.91583	-24.57935	-253.86023	797.71344	-80.923859	-243.21983	731.51819	1.8973247	143.16345	893.15387	-28.221409	-120.63505	880.93091	-21.140547	47.212849	953.49487	-239.46126	-42.88805	951.23077	-238.6866
6	0.05	86.244553	1553.8743	-26.337143	-55.146431	1552.2129	-22.179243	57.331501	1560.9298	-186.0757	-71.984001	1535.2091	-187.92526	10.368984	1342.1207	-213.2128	3.8577909	1131.7465	-256.10422	11.692882	1265.6873	-18.47471	21.913	1070.1799	20.388998	-71.546593	1264.3318	-238.757	145.03087	1342.8934	-131.37872	239.59288	1207.7576	-117.13715	263.54636	1008.5814	-132.59789	246.59332	879.05573	-55.851959	214.02786	797.8924	-46.976696	279.80533	799.65143	-102.12492	271.45859	723.32385	-32.428402	-126.33644	1332.3455	-123.15553	-217.78894	1116.1915	-87.555527	-236.87915	999.15735	-143.9615	-228.9494	954.20734	-55.870754	-194.07161	801.94427	-24.472637	-253.94699	797.75055	-80.798256	-243.25958	731.55316	2.0161576	143.17445	893.14856	-28.170361	-120.67101	880.92865	-20.974699	47.181904	953.45862	-239.32292	-42.934078	951.23163	-238.60738
7	0.06	86.273956	1553.8667	-26.311293	-55.113686	1552.2321	-22.130583	57.379166	1560.9449	-186.04822	-71.92997	1535.2386	-187.94322	10.368997	1342.1207	-213.21043	3.8080575	1131.6981	-256.01428	11.722076	1265.6727	-18.405773	21.902933	1070.1597	20.42264	-71.567261	1264.3002	-238.72557	145.03255	1342.844	-131.37761	239.53773	1207.7109	-117.10731	263.465	1008.5179	-132.52365	246.46765	879.0235	-55.747704	213.92627	797.87909	-46.809746	279.66647	799.59711	-102.0258	271.30362	723.26904	-32.293755	-126.31657	1332.3632	-123.12857	-217.88258	1116.2733	-87.794189	-236.90674	999.19452	-143.90265	-228.98206	954.27338	-55.800617	-194.18298	801.96924	-24.374821	-253.97807	797.79327	-80.717361	-243.31448	731.61316	2.1332653	143.15041	893.17609	-28.137724	-120.68412	880.89771	-20.948627	47.135517	953.50568	-239.35541	-42.94828	951.24072	-238.60698
8	0.07	86.344444	1553.87	-26.315903	-55.045956	1552.2421	-22.15151	57.434715	1560.9335	-186.03909	-71.88533	1535.2448	-187.89594	10.376246	1342.0739	-213.17825	3.8302615	1131.6936	-255.94974	11.710224	1265.7021	-18.443697	21.882248	1070.1522	20.414492	-71.564278	1264.3237	-238.68039	145.03282	1342.8271	-131.37831	239.5177	1207.6616	-117.04577	263.37643	1008.4616	-132.45741	246.38551	878.99591	-55.643173	213.80278	797.79285	-46.743073	279.54291	799.52197	-101.86871	271.17535	723.23676	-32.135708	-126.31388	1332.3644	-123.00008	-217.88484	1116.2864	-87.801338	-236.94054	999.20667	-143.8172	-229.01419	954.27179	-55.584873	-194.23619	801.99298	-24.258703	-254.05396	797.81464	-80.577118	-243.38217	731.66089	2.2074332	143.11627	893.14905	-28.073832	-120.71714	880.90179	-20.881899	47.077274	953.49762	-239.28151	-43.009926	951.23163	-238.52844
9	0.08	86.368538	1553.882	-26.324465	-54.996639	1552.2725	-22.110392	57.483822	1560.8916	-186.00398	-71.874352	1535.2211	-187.84071	10.372022	1342.0551	-213.13367	3.7527807	1131.6205	-255.90247	11.722491	1265.7036	-18.326406	21.865833	1070.1351	20.454603	-71.539398	1264.2994	-238.66171	145.05191	1342.7942	-131.31174	239.5041	1207.5945	-117.04297	263.31873	1008.4131	-132.39287	246.25084	878.95331	-55.519436	213.67032	797.79077	-46.617767	279.72275	799.45172	-101.65099	271.00549	723.18732	-31.954821	-126.30936	1332.3785	-123.04127	-217.83774	1116.2883	-87.434746	-236.9563	999.24951	-143.76202	-229.0555	954.30768	-55.483925	-194.28893	802.01611	-24.141073	-254.11665	797.85767	-80.464691	-243.45703	731.70502	2.3316622	143.09093	893.17584	-28.042841	-120.73749	880.89038	-20.806725	47.071819	953.45618	-239.12683	-43.01458	951.20374	-238.39876
10	0.09	86.443298	1553.8861	-26.322443	-54.935177	1552.3018	-22.094913	57.514309	1560.8839	-186.03864	-71.816719	1535.2253	-187.88327	10.366913	1342.0374	-213.06049	3.7640543	1131.6615	-255.90994	11.75469	1265.7186	-18.357361	21.834198	1070.1356	20.49509	-71.59478	1264.2744	-238.57257	145.05678	1342.7468	-131.28227	239.48724	1207.5641	-116.98081	263.29419	1008.3428	-132.3201	246.17754	878.92908	-55.42852	213.51401	797.76453	-46.494858	279.5918	799.4079	-101.53796	270.87497	723.16455	-31.846882	-126.26711	1332.3741	-122.97466	-217.93765	1116.3547	-87.784309	-237.00375	999.26215	-143.66333	-229.07974	954.35388	-55.370396	-194.3732	802.03705	-24.074219	-254.18872	797.85266	-80.342644	-243.52887	731.72516	2.5040224	143.07481	893.17462	-27.969688	-120.75115	880.87292	-20.72156	46.998741	953.45471	-239.10393	-43.048641	951.27844	-238.42645
11	0.1	86.50058	1553.8911	-26.302094	-54.883511	1552.3276	-22.090555	57.559242	1560.8553	-186.04535	-71.793137	1535.2141	-187.82622	10.366063	1342.038	-213.06134	3.7335453	1131.6136	-255.80254	11.736302	1265.6863	-18.237478	21.822424	1070.1176	20.520685	-71.597656	1264.2552	-238.48373	145.07288	1342.7401	-131.27692	239.49295	1207.5215	-116.96824	263.22763	1008.2913	-132.25677	246.06134	878.87665	-55.324612	213.40591	797.78992	-46.340908	279.18243	799.36328	-101.49746	270.7359	723.14423	-31.677891	-126.2558	1332.4047	-122.9684	-217.83356	1116.3041	-87.10318	-237.05528	999.27979	-143.60335	-229.12218	954.37134	-55.274326	-194.42557	802.0741	-23.959337	-254.27449	797.91467	-80.23864	-243.60112	731.76605	2.6396132	143.05397	893.15802	-27.965258	-120.75786	880.85895	-20.594101	46.978443	953.45068	-239.04716	-43.104473	951.24854	-238.33974
